<svg xmlns="http://www.w3.org/2000/svg" viewBox="0 0 64 64" width="64" height="64">
  <defs>
    <linearGradient id="tg" x1="0" y1="0" x2="1" y2="1">
      <stop offset="0" stop-color="#0d7b6a"/>
      <stop offset="0.55" stop-color="#0b5f54"/>
      <stop offset="1" stop-color="#0a4a42"/>
    </linearGradient>
    <linearGradient id="gl" x1="0" y1="0" x2="0" y2="1">
      <stop offset="0" stop-color="#ffffff" stop-opacity="0.30"/>
      <stop offset="1" stop-color="#ffffff" stop-opacity="0"/>
    </linearGradient>
  </defs>
  <rect x="2" y="2" width="60" height="60" rx="15" fill="url(#tg)"/>
  <g>
    <path d="M 6.00 41 A 26.00 26.00 0 0 1 58.00 41" fill="none" stroke="#ee6f9c" stroke-width="3.05" stroke-linecap="round"/>
    <path d="M 9.05 41 A 22.95 22.95 0 0 1 54.95 41" fill="none" stroke="#f4a44a" stroke-width="3.05" stroke-linecap="round"/>
    <path d="M 12.10 41 A 19.90 19.90 0 0 1 51.90 41" fill="none" stroke="#f5d23f" stroke-width="3.05" stroke-linecap="round"/>
    <path d="M 15.15 41 A 16.85 16.85 0 0 1 48.85 41" fill="none" stroke="#5bbf7a" stroke-width="3.05" stroke-linecap="round"/>
    <path d="M 18.20 41 A 13.80 13.80 0 0 1 45.80 41" fill="none" stroke="#46b3d6" stroke-width="3.05" stroke-linecap="round"/>
    <path d="M 21.25 41 A 10.75 10.75 0 0 1 42.75 41" fill="none" stroke="#7b6fd4" stroke-width="3.05" stroke-linecap="round"/>
  </g>
  <circle cx="32" cy="41" r="2.4" fill="#ffffff"/>
  <rect x="2" y="2" width="60" height="28" rx="15" fill="url(#gl)"/>
</svg>